<svg width="37" height="38" viewBox="0 0 37 38" fill="none" xmlns="http://www.w3.org/2000/svg">
<path d="M5 20.5H22.423L23.048 18H7.5V15.5H24.649C25.3394 15.5 25.899 16.0596 25.899 16.75C25.899 16.8522 25.8865 16.954 25.8616 17.0532L22.7366 29.5531C22.5976 30.1096 22.0976 30.5 21.524 30.5H3.75C3.05965 30.5 2.5 29.9404 2.5 29.25V14.25H0V11.75H3.75C4.44036 11.75 5 12.3097 5 13V20.5ZM5 38C3.61929 38 2.5 36.8808 2.5 35.5C2.5 34.1192 3.61929 33 5 33C6.38071 33 7.5 34.1192 7.5 35.5C7.5 36.8808 6.38071 38 5 38ZM20 38C18.6193 38 17.5 36.8808 17.5 35.5C17.5 34.1192 18.6193 33 20 33C21.3808 33 22.5 34.1192 22.5 35.5C22.5 36.8808 21.3808 38 20 38Z" fill="#313131"/>
<rect x="18.4939" y="0.25" width="18" height="18" rx="9" fill="#0D5C63"/>
<path d="M25.3036 5.97727V13.25H24.4229V6.90057H24.3803L22.6047 8.07955V7.18466L24.4229 5.97727H25.3036ZM29.7673 13.3494C29.2323 13.3494 28.7766 13.2038 28.4001 12.9126C28.0237 12.6191 27.7361 12.1941 27.5372 11.6378C27.3384 11.0791 27.2389 10.4044 27.2389 9.61364C27.2389 8.82765 27.3384 8.15649 27.5372 7.60014C27.7385 7.04143 28.0273 6.61529 28.4037 6.32173C28.7825 6.0258 29.237 5.87784 29.7673 5.87784C30.2976 5.87784 30.751 6.0258 31.1274 6.32173C31.5062 6.61529 31.795 7.04143 31.9939 7.60014C32.1951 8.15649 32.2957 8.82765 32.2957 9.61364C32.2957 10.4044 32.1963 11.0791 31.9974 11.6378C31.7986 12.1941 31.5109 12.6191 31.1345 12.9126C30.7581 13.2038 30.3024 13.3494 29.7673 13.3494ZM29.7673 12.5682C30.2976 12.5682 30.7096 12.3125 31.0031 11.8011C31.2967 11.2898 31.4435 10.5606 31.4435 9.61364C31.4435 8.9839 31.376 8.44768 31.2411 8.00497C31.1085 7.56226 30.9167 7.22491 30.6658 6.9929C30.4172 6.76089 30.1177 6.64489 29.7673 6.64489C29.2418 6.64489 28.831 6.90412 28.5351 7.42259C28.2392 7.93868 28.0912 8.66903 28.0912 9.61364C28.0912 10.2434 28.1575 10.7784 28.2901 11.2188C28.4226 11.6591 28.6132 11.9941 28.8618 12.2237C29.1127 12.4534 29.4146 12.5682 29.7673 12.5682Z" fill="white"/>
</svg>
