<svg width="26" height="27" viewBox="0 0 26 27" fill="none" xmlns="http://www.w3.org/2000/svg">
<path d="M5 9.5H22.423L23.048 7H7.5V4.5H24.649C25.3394 4.5 25.899 5.05965 25.899 5.75C25.899 5.8522 25.8865 5.95402 25.8616 6.05317L22.7366 18.5531C22.5976 19.1096 22.0976 19.5 21.524 19.5H3.75C3.05965 19.5 2.5 18.9404 2.5 18.25V3.25H0V0.75H3.75C4.44036 0.75 5 1.30965 5 2V9.5ZM5 27C3.61929 27 2.5 25.8808 2.5 24.5C2.5 23.1192 3.61929 22 5 22C6.38071 22 7.5 23.1192 7.5 24.5C7.5 25.8808 6.38071 27 5 27ZM20 27C18.6193 27 17.5 25.8808 17.5 24.5C17.5 23.1192 18.6193 22 20 22C21.3808 22 22.5 23.1192 22.5 24.5C22.5 25.8808 21.3808 27 20 27Z" fill="#313131"/>
</svg>
