<svg width="35" height="35" viewBox="0 0 35 35" fill="none" xmlns="http://www.w3.org/2000/svg">
<rect width="35" height="35" rx="17.5" fill="#D9D9D9"/>
<path d="M17.001 10.0285C19.35 7.92 22.98 7.99 25.2426 10.2574C27.5053 12.5247 27.583 16.137 25.4786 18.493L16.9999 26.985L8.52138 18.493C6.41705 16.137 6.49571 12.519 8.75736 10.2574C11.0216 7.99315 14.6452 7.91687 17.001 10.0285ZM23.827 11.6701C22.3279 10.1679 19.9076 10.107 18.337 11.5169L17.0019 12.7152L15.6661 11.5178C14.091 10.106 11.6751 10.1681 10.1716 11.6716C8.68183 13.1613 8.60704 15.5473 9.97993 17.1232L16.9999 24.1543L24.0201 17.1232C25.3935 15.5467 25.319 13.1653 23.827 11.6701Z" fill="#19231A"/>
</svg>
