<svg width="36" height="35" viewBox="0 0 36 35" fill="none" xmlns="http://www.w3.org/2000/svg">
<rect x="0.875" width="35" height="35" rx="17.5" fill="#E4DADA"/>
<path d="M17.876 10.0285C20.225 7.92 23.855 7.99 26.1176 10.2574C28.3803 12.5247 28.458 16.137 26.3536 18.493L17.8749 26.985L9.39638 18.493C7.29205 16.137 7.37071 12.519 9.63236 10.2574C11.8966 7.99315 15.5202 7.91687 17.876 10.0285ZM24.702 11.6701C23.2029 10.1679 20.7826 10.107 19.212 11.5169L17.8769 12.7152L16.5411 11.5178C14.966 10.106 12.5501 10.1681 11.0466 11.6716C9.55683 13.1613 9.48204 15.5473 10.8549 17.1232L17.8749 24.1543L24.8951 17.1232C26.2685 15.5467 26.194 13.1653 24.702 11.6701Z" fill="#19231A"/>
</svg>
