<svg width="72" height="72" viewBox="0 0 72 72" fill="none" xmlns="http://www.w3.org/2000/svg">
<rect width="72" height="72" rx="36" fill="#D9D9D9"/>
<path d="M24.2917 28.7082C24.2917 27.5 25.271 26.5207 26.4792 26.5207C27.6873 26.5207 28.6667 27.5 28.6667 28.7082C28.6667 29.9163 27.6873 30.8957 26.4792 30.8957C25.271 30.8957 24.2917 29.9163 24.2917 28.7082ZM26.4792 23.604C23.6602 23.604 21.375 25.8892 21.375 28.7082C21.375 31.5271 23.6602 33.8123 26.4792 33.8123C29.2981 33.8123 31.5833 31.5271 31.5833 28.7082C31.5833 25.8892 29.2981 23.604 26.4792 23.604ZM34.5 30.1665H46.1667V27.2498H34.5V30.1665ZM40.3333 43.2915C40.3333 42.0834 41.3127 41.104 42.5208 41.104C43.7289 41.104 44.7083 42.0834 44.7083 43.2915C44.7083 44.4996 43.7289 45.479 42.5208 45.479C41.3127 45.479 40.3333 44.4996 40.3333 43.2915ZM42.5208 38.1873C39.7019 38.1873 37.4167 40.4725 37.4167 43.2915C37.4167 46.1105 39.7019 48.3957 42.5208 48.3957C45.3398 48.3957 47.625 46.1105 47.625 43.2915C47.625 40.4725 45.3398 38.1873 42.5208 38.1873ZM22.8333 41.8332V44.7498H34.5V41.8332H22.8333Z" fill="black"/>
</svg>
