<svg width="40" height="35" viewBox="0 0 40 35" fill="none" xmlns="http://www.w3.org/2000/svg">
<rect x="0.5" width="31" height="31" rx="15.5" fill="#FFFFFA"/>
<path d="M21.5004 20.5V25.5H19.5004V20.5C19.5004 16.0487 22.1444 12.215 25.9475 10.4835L26.7753 12.3047C23.6637 13.7213 21.5004 16.8581 21.5004 20.5ZM11.5005 20.5V25.5H9.50045V20.5C9.50045 16.8581 7.33723 13.7213 4.22559 12.3047L5.05339 10.4835C8.85651 12.215 11.5005 16.0487 11.5005 20.5ZM15.5004 15.5C12.739 15.5 10.5005 13.2614 10.5005 10.5C10.5005 7.73858 12.739 5.5 15.5004 5.5C18.2619 5.5 20.5004 7.73858 20.5004 10.5C20.5004 13.2614 18.2619 15.5 15.5004 15.5ZM15.5004 13.5C17.1573 13.5 18.5004 12.1568 18.5004 10.5C18.5004 8.84315 17.1573 7.5 15.5004 7.5C13.8436 7.5 12.5005 8.84315 12.5005 10.5C12.5005 12.1568 13.8436 13.5 15.5004 13.5Z" fill="#19231A"/>
<path d="M31.9999 21.2974L32.2844 21.4428C33.388 22.0069 34.333 22.8361 35.0358 23.8465C35.6158 23.5711 36.2367 23.3677 36.8871 23.2483L37.625 23.1127V28.1247C37.625 31.2312 35.1066 33.7498 32 33.7498C28.8934 33.7498 26.375 31.2314 26.375 28.1248V23.1127L27.1129 23.2483C27.7632 23.3677 28.3842 23.571 28.9641 23.8465C29.6669 22.8361 30.6119 22.0069 31.7154 21.4428L31.9999 21.2974ZM30.0485 24.4779C30.8171 25.0163 31.4799 25.6952 32 26.4775C32.5201 25.6952 33.1831 25.0163 33.9514 24.478C33.4345 23.7598 32.7689 23.1556 31.9999 22.7107C31.2311 23.1555 30.5654 23.7597 30.0485 24.4779ZM31.3121 27.7709C30.7614 26.6999 29.91 25.808 28.8694 25.2075C28.4792 24.9822 28.0624 24.798 27.625 24.6606V28.1248C27.625 30.181 29.0435 31.9059 30.9553 32.3743C30.8211 31.8125 30.75 31.2266 30.75 30.6247C30.75 29.6142 30.9499 28.6505 31.3121 27.7709ZM32.2832 32.4907C34.5674 32.3448 36.375 30.4458 36.375 28.1247V24.6606C35.9375 24.798 35.5208 24.9822 35.1305 25.2075C33.2579 26.2884 32 28.31 32 30.6247C32 31.2754 32.0993 31.902 32.2832 32.4907Z" fill="#002AFB"/>
</svg>
