<svg width="38" height="39" viewBox="0 0 38 39" fill="none" xmlns="http://www.w3.org/2000/svg">
<path d="M15.4951 14.6607C18.4314 12.025 22.9689 12.1125 25.7971 14.9467C28.6255 17.7809 28.7226 22.2963 26.0921 25.2413L15.4938 35.8563L4.89562 25.2413C2.26521 22.2963 2.36353 17.7738 5.19059 14.9467C8.02086 12.1164 12.5504 12.0211 15.4951 14.6607Z" fill="#F50F0F"/>
<rect x="19.4939" width="18" height="18" rx="9" fill="#0D5C63"/>
<path d="M28.0195 13.0994C27.6028 13.0994 27.2276 13.0166 26.8938 12.8509C26.5599 12.6851 26.2924 12.4579 26.0912 12.169C25.89 11.8802 25.7799 11.5511 25.7609 11.1818H26.6132C26.6464 11.5109 26.7955 11.7831 27.0607 11.9986C27.3282 12.2116 27.6478 12.3182 28.0195 12.3182C28.3178 12.3182 28.5829 12.2483 28.8149 12.1087C29.0493 11.969 29.2328 11.7772 29.3653 11.5334C29.5003 11.2872 29.5678 11.009 29.5678 10.6989C29.5678 10.3816 29.4979 10.0987 29.3582 9.85014C29.2209 9.5992 29.0315 9.40152 28.7901 9.2571C28.5486 9.11269 28.2728 9.0393 27.9626 9.03693C27.7401 9.03456 27.5117 9.06889 27.2773 9.13991C27.0429 9.20857 26.85 9.29735 26.6984 9.40625L25.8746 9.30682L26.3149 5.72727H30.0933V6.50852H27.0536L26.7979 8.65341H26.8405C26.9896 8.53504 27.1767 8.43679 27.4016 8.35866C27.6265 8.28054 27.8608 8.24148 28.1047 8.24148C28.5498 8.24148 28.9463 8.34801 29.2943 8.56108C29.6447 8.77178 29.9193 9.06061 30.1182 9.42756C30.3194 9.79451 30.42 10.2135 30.42 10.6847C30.42 11.1487 30.3159 11.563 30.1075 11.9276C29.9016 12.2898 29.6175 12.5762 29.2553 12.7869C28.893 12.9953 28.4811 13.0994 28.0195 13.0994Z" fill="white"/>
</svg>
