<svg width="136" height="24" viewBox="0 0 136 24" fill="none" xmlns="http://www.w3.org/2000/svg">
<path d="M11.9998 17L6.12197 20.5902L7.72007 13.8906L2.48926 9.40983L9.35479 8.85942L11.9998 2.5L14.6449 8.85942L21.5104 9.40983L16.2796 13.8906L17.8777 20.5902L11.9998 17Z" fill="#F9B600"/>
<path d="M39.9998 17L34.122 20.5902L35.7201 13.8906L30.4893 9.40983L37.3548 8.85942L39.9998 2.5L42.6449 8.85942L49.5104 9.40983L44.2796 13.8906L45.8777 20.5902L39.9998 17Z" fill="#F9B600"/>
<path d="M68.0006 15.968L72.2473 18.3451L71.2988 13.5717L74.8719 10.2674L70.039 9.69434L68.0006 5.27502V15.968ZM68.0006 18.26L60.9471 22.2082L62.5225 14.2799L56.5879 8.7918L64.6149 7.84006L68.0006 0.5L71.3862 7.84006L79.4132 8.7918L73.4787 14.2799L75.054 22.2082L68.0006 18.26Z" fill="#19231A"/>
<path d="M96.0006 15.968L100.247 18.3451L99.2988 13.5717L102.872 10.2674L98.039 9.69434L96.0006 5.27502V15.968ZM96.0006 18.26L88.9471 22.2082L90.5225 14.2799L84.5879 8.7918L92.6149 7.84006L96.0006 0.5L99.3862 7.84006L107.413 8.7918L101.479 14.2799L103.054 22.2082L96.0006 18.26Z" fill="#19231A"/>
<path d="M124.001 15.968L128.247 18.3451L127.299 13.5717L130.872 10.2674L126.039 9.69434L124.001 5.27502V15.968ZM124.001 18.26L116.947 22.2082L118.522 14.2799L112.588 8.7918L120.615 7.84006L124.001 0.5L127.386 7.84006L135.413 8.7918L129.479 14.2799L131.054 22.2082L124.001 18.26Z" fill="#19231A"/>
</svg>
