<svg width="120" height="29" viewBox="0 0 120 29" fill="none" xmlns="http://www.w3.org/2000/svg">
<rect x="0.75" width="29" height="29" rx="14.5" fill="white"/>
<path d="M11.2514 19.1662C10.5497 19.1662 9.94744 18.9886 9.4446 18.6335C8.9446 18.2756 8.55966 17.7599 8.28977 17.0866C8.02273 16.4105 7.8892 15.5966 7.8892 14.6449C7.89205 13.6932 8.02699 12.8835 8.29403 12.2159C8.56392 11.5455 8.94886 11.0341 9.44886 10.6818C9.9517 10.3295 10.5526 10.1534 11.2514 10.1534C11.9503 10.1534 12.5511 10.3295 13.054 10.6818C13.5568 11.0341 13.9418 11.5455 14.2088 12.2159C14.4787 12.8864 14.6136 13.696 14.6136 14.6449C14.6136 15.5994 14.4787 16.4148 14.2088 17.0909C13.9418 17.7642 13.5568 18.2784 13.054 18.6335C12.554 18.9886 11.9531 19.1662 11.2514 19.1662ZM11.2514 17.8324C11.7969 17.8324 12.2273 17.5639 12.5426 17.027C12.8608 16.4872 13.0199 15.6932 13.0199 14.6449C13.0199 13.9517 12.9474 13.3693 12.8026 12.8977C12.6577 12.4261 12.4531 12.071 12.1889 11.8324C11.9247 11.5909 11.6122 11.4702 11.2514 11.4702C10.7088 11.4702 10.2798 11.7401 9.96449 12.2798C9.64915 12.8168 9.49006 13.6051 9.48722 14.6449C9.48438 15.3409 9.55398 15.9261 9.69602 16.4006C9.84091 16.875 10.0455 17.233 10.3097 17.4744C10.5739 17.7131 10.8878 17.8324 11.2514 17.8324ZM19.1317 19.1193C18.4982 19.1193 17.9357 19.0128 17.4442 18.7997C16.9556 18.5866 16.5721 18.2955 16.2937 17.9261C16.0181 17.554 15.8817 17.1321 15.8846 16.6605C15.8817 16.294 15.9613 15.9574 16.1232 15.6506C16.2852 15.3438 16.5039 15.0881 16.7795 14.8835C17.0579 14.6761 17.3675 14.544 17.7085 14.4872V14.4276C17.2596 14.3281 16.896 14.0994 16.6175 13.7415C16.342 13.3807 16.2056 12.9645 16.2085 12.4929C16.2056 12.044 16.3306 11.6435 16.5835 11.2912C16.8363 10.9389 17.1829 10.6619 17.6232 10.4602C18.0636 10.2557 18.5664 10.1534 19.1317 10.1534C19.6914 10.1534 20.19 10.2557 20.6275 10.4602C21.0678 10.6619 21.4144 10.9389 21.6673 11.2912C21.9229 11.6435 22.0508 12.044 22.0508 12.4929C22.0508 12.9645 21.9102 13.3807 21.6289 13.7415C21.3505 14.0994 20.9911 14.3281 20.5508 14.4276V14.4872C20.8917 14.544 21.1985 14.6761 21.4712 14.8835C21.7468 15.0881 21.9656 15.3438 22.1275 15.6506C22.2923 15.9574 22.3746 16.294 22.3746 16.6605C22.3746 17.1321 22.2354 17.554 21.957 17.9261C21.6786 18.2955 21.2951 18.5866 20.8065 18.7997C20.3207 19.0128 19.7624 19.1193 19.1317 19.1193ZM19.1317 17.9006C19.4585 17.9006 19.7425 17.8452 19.984 17.7344C20.2255 17.6207 20.413 17.4616 20.5465 17.2571C20.68 17.0526 20.7482 16.8168 20.7511 16.5497C20.7482 16.2713 20.6758 16.0256 20.5337 15.8125C20.3945 15.5966 20.2028 15.4276 19.9585 15.3054C19.717 15.1832 19.4414 15.1222 19.1317 15.1222C18.8192 15.1222 18.5408 15.1832 18.2965 15.3054C18.0522 15.4276 17.859 15.5966 17.717 15.8125C17.5778 16.0256 17.5096 16.2713 17.5124 16.5497C17.5096 16.8168 17.5749 17.0526 17.7085 17.2571C17.842 17.4588 18.0295 17.6165 18.271 17.7301C18.5153 17.8437 18.8022 17.9006 19.1317 17.9006ZM19.1317 13.9247C19.3988 13.9247 19.6346 13.8707 19.8391 13.7628C20.0465 13.6548 20.2099 13.5043 20.3292 13.3111C20.4485 13.1179 20.5096 12.8949 20.5124 12.642C20.5096 12.392 20.4499 12.1733 20.3335 11.9858C20.217 11.7955 20.055 11.6491 19.8477 11.5469C19.6403 11.4418 19.4016 11.3892 19.1317 11.3892C18.8562 11.3892 18.6133 11.4418 18.4031 11.5469C18.1957 11.6491 18.0337 11.7955 17.9173 11.9858C17.8036 12.1733 17.7482 12.392 17.7511 12.642C17.7482 12.8949 17.805 13.1179 17.9215 13.3111C18.0408 13.5014 18.2042 13.652 18.4116 13.7628C18.6218 13.8707 18.8619 13.9247 19.1317 13.9247Z" fill="black"/>
<path d="M36.1307 21.1477C35.7557 21.1477 35.4337 21.0152 35.1648 20.75C34.8996 20.4811 34.767 20.1591 34.767 19.7841C34.767 19.4129 34.8996 19.0947 35.1648 18.8295C35.4337 18.5644 35.7557 18.4318 36.1307 18.4318C36.4943 18.4318 36.8125 18.5644 37.0852 18.8295C37.358 19.0947 37.4943 19.4129 37.4943 19.7841C37.4943 20.0341 37.4299 20.2633 37.3011 20.4716C37.1761 20.6761 37.0114 20.8409 36.8068 20.9659C36.6023 21.0871 36.3769 21.1477 36.1307 21.1477ZM36.1307 15.0341C35.7557 15.0341 35.4337 14.9015 35.1648 14.6364C34.8996 14.3712 34.767 14.0492 34.767 13.6705C34.767 13.2992 34.8996 12.983 35.1648 12.7216C35.4337 12.4564 35.7557 12.3239 36.1307 12.3239C36.4943 12.3239 36.8125 12.4564 37.0852 12.7216C37.358 12.983 37.4943 13.2992 37.4943 13.6705C37.4943 13.9242 37.4299 14.1553 37.3011 14.3636C37.1761 14.5682 37.0114 14.7311 36.8068 14.8523C36.6023 14.9735 36.3769 15.0341 36.1307 15.0341Z" fill="#FFFFFA"/>
<rect x="45.75" width="29" height="29" rx="14.5" fill="white"/>
<path d="M58.0753 10.2727V19H56.4943V11.8111H56.4432L54.402 13.1151V11.6662L56.571 10.2727H58.0753ZM60.6108 19L64.3224 11.6534V11.5938H60.0142V10.2727H65.9588V11.6236L62.2514 19H60.6108Z" fill="black"/>
<path d="M83.1307 21.1477C82.7557 21.1477 82.4337 21.0152 82.1648 20.75C81.8996 20.4811 81.767 20.1591 81.767 19.7841C81.767 19.4129 81.8996 19.0947 82.1648 18.8295C82.4337 18.5644 82.7557 18.4318 83.1307 18.4318C83.4943 18.4318 83.8125 18.5644 84.0852 18.8295C84.358 19.0947 84.4943 19.4129 84.4943 19.7841C84.4943 20.0341 84.4299 20.2633 84.3011 20.4716C84.1761 20.6761 84.0114 20.8409 83.8068 20.9659C83.6023 21.0871 83.3769 21.1477 83.1307 21.1477ZM83.1307 15.0341C82.7557 15.0341 82.4337 14.9015 82.1648 14.6364C81.8996 14.3712 81.767 14.0492 81.767 13.6705C81.767 13.2992 81.8996 12.983 82.1648 12.7216C82.4337 12.4564 82.7557 12.3239 83.1307 12.3239C83.4943 12.3239 83.8125 12.4564 84.0852 12.7216C84.358 12.983 84.4943 13.2992 84.4943 13.6705C84.4943 13.9242 84.4299 14.1553 84.3011 14.3636C84.1761 14.5682 84.0114 14.7311 83.8068 14.8523C83.6023 14.9735 83.3769 15.0341 83.1307 15.0341Z" fill="#FFFFFA"/>
<rect x="90.75" width="29" height="29" rx="14.5" fill="white"/>
<path d="M101.06 19.1193C100.491 19.1193 99.983 19.0128 99.5341 18.7997C99.0852 18.5838 98.7287 18.2884 98.4645 17.9134C98.2031 17.5384 98.0639 17.1094 98.0469 16.6264H99.581C99.6094 16.9844 99.7642 17.277 100.045 17.5043C100.327 17.7287 100.665 17.8409 101.06 17.8409C101.369 17.8409 101.645 17.7699 101.886 17.6278C102.128 17.4858 102.318 17.2884 102.457 17.0355C102.597 16.7827 102.665 16.4943 102.662 16.1705C102.665 15.8409 102.595 15.5483 102.453 15.2926C102.311 15.0369 102.116 14.8366 101.869 14.6918C101.622 14.544 101.338 14.4702 101.017 14.4702C100.756 14.4673 100.499 14.5156 100.246 14.6151C99.9929 14.7145 99.7926 14.8452 99.6449 15.0071L98.2173 14.7727L98.6733 10.2727H103.736V11.5938H99.9815L99.7301 13.9077H99.7812C99.9432 13.7173 100.172 13.5597 100.467 13.4347C100.763 13.3068 101.087 13.2429 101.439 13.2429C101.967 13.2429 102.439 13.3679 102.854 13.6179C103.268 13.8651 103.595 14.206 103.834 14.6406C104.072 15.0753 104.192 15.5724 104.192 16.1321C104.192 16.7088 104.058 17.223 103.791 17.6747C103.527 18.1236 103.159 18.4773 102.688 18.7358C102.219 18.9915 101.676 19.1193 101.06 19.1193ZM108.815 19.1193C108.398 19.1165 107.99 19.044 107.592 18.902C107.195 18.7571 106.837 18.5227 106.518 18.1989C106.2 17.8722 105.947 17.4389 105.76 16.8991C105.572 16.3565 105.48 15.6847 105.483 14.8835C105.483 14.1364 105.563 13.4702 105.722 12.8849C105.881 12.2997 106.109 11.8054 106.408 11.402C106.706 10.9957 107.065 10.6861 107.486 10.473C107.909 10.2599 108.382 10.1534 108.905 10.1534C109.453 10.1534 109.939 10.2614 110.362 10.4773C110.788 10.6932 111.132 10.9886 111.393 11.3636C111.655 11.7358 111.817 12.1562 111.879 12.625H110.324C110.244 12.2898 110.081 12.0227 109.834 11.8239C109.589 11.6222 109.28 11.5213 108.905 11.5213C108.3 11.5213 107.834 11.7841 107.507 12.3097C107.183 12.8352 107.02 13.5568 107.017 14.4744H107.077C107.216 14.2244 107.396 14.0099 107.618 13.831C107.839 13.652 108.089 13.5142 108.368 13.4176C108.649 13.3182 108.946 13.2685 109.259 13.2685C109.77 13.2685 110.229 13.3906 110.635 13.6349C111.044 13.8793 111.368 14.2159 111.607 14.6449C111.845 15.071 111.963 15.5597 111.96 16.1108C111.963 16.6847 111.832 17.2003 111.568 17.6577C111.304 18.1122 110.936 18.4702 110.464 18.7315C109.993 18.9929 109.443 19.1222 108.815 19.1193ZM108.807 17.8409C109.116 17.8409 109.393 17.7656 109.638 17.6151C109.882 17.4645 110.075 17.2614 110.217 17.0057C110.359 16.75 110.429 16.4631 110.426 16.1449C110.429 15.8324 110.361 15.5497 110.222 15.2969C110.085 15.044 109.896 14.8437 109.655 14.696C109.413 14.5483 109.138 14.4744 108.828 14.4744C108.598 14.4744 108.384 14.5185 108.185 14.6065C107.986 14.6946 107.813 14.8168 107.665 14.973C107.517 15.1264 107.401 15.3054 107.315 15.5099C107.233 15.7116 107.19 15.9276 107.188 16.1577C107.19 16.4616 107.261 16.7415 107.401 16.9972C107.54 17.2528 107.732 17.4574 107.976 17.6108C108.22 17.7642 108.497 17.8409 108.807 17.8409Z" fill="black"/>
</svg>
